<svg width="106" height="16" viewBox="0 0 106 16" fill="none" xmlns="http://www.w3.org/2000/svg">
<path d="M4.2 14.664C4.024 14.712 3.744 14.76 3.36 14.808C2.992 14.856 2.624 14.88 2.256 14.88C1.888 14.88 1.56 14.848 1.272 14.784C1 14.736 0.768 14.64 0.576 14.496C0.384 14.352 0.24 14.152 0.144 13.896C0.0479999 13.64 0 13.304 0 12.888V0.216C0.176 0.183999 0.456 0.144 0.84 0.0960007C1.224 0.0320005 1.592 0 1.944 0C2.312 0 2.632 0.0320005 2.904 0.0960007C3.192 0.144 3.432 0.239999 3.624 0.383999C3.816 0.527999 3.96 0.728 4.056 0.984C4.152 1.24 4.2 1.576 4.2 1.992V14.664Z" fill="url(#paint0_linear_16_513)"/>
<path d="M14.3925 7.368C14.3925 6.872 14.2485 6.512 13.9605 6.288C13.6885 6.048 13.3125 5.928 12.8325 5.928C12.5125 5.928 12.1925 5.968 11.8725 6.048C11.5685 6.128 11.3045 6.248 11.0805 6.408V14.736C10.9205 14.784 10.6645 14.832 10.3125 14.88C9.9765 14.928 9.6245 14.952 9.2565 14.952C8.9045 14.952 8.5845 14.928 8.2965 14.88C8.0245 14.832 7.7925 14.736 7.6005 14.592C7.4085 14.448 7.2565 14.256 7.1445 14.016C7.0485 13.76 7.0005 13.432 7.0005 13.032V5.832C7.0005 5.4 7.0885 5.048 7.2645 4.776C7.4565 4.504 7.7125 4.256 8.0325 4.032C8.5765 3.648 9.2565 3.336 10.0725 3.096C10.9045 2.856 11.8245 2.736 12.8325 2.736C14.6405 2.736 16.0325 3.136 17.0085 3.936C17.9845 4.72 18.4725 5.816 18.4725 7.224V14.736C18.3125 14.784 18.0565 14.832 17.7045 14.88C17.3685 14.928 17.0165 14.952 16.6485 14.952C16.2965 14.952 15.9765 14.928 15.6885 14.88C15.4165 14.832 15.1845 14.736 14.9925 14.592C14.8005 14.448 14.6485 14.256 14.5365 14.016C14.4405 13.76 14.3925 13.432 14.3925 13.032V7.368Z" fill="url(#paint1_linear_16_513)"/>
<path d="M30.8327 11.28C30.8327 12.496 30.3767 13.448 29.4647 14.136C28.5527 14.824 27.2087 15.168 25.4327 15.168C24.7607 15.168 24.1367 15.12 23.5607 15.024C22.9847 14.928 22.4887 14.784 22.0727 14.592C21.6727 14.384 21.3527 14.128 21.1127 13.824C20.8887 13.52 20.7767 13.16 20.7767 12.744C20.7767 12.36 20.8567 12.04 21.0167 11.784C21.1767 11.512 21.3687 11.288 21.5927 11.112C22.0567 11.368 22.5847 11.6 23.1767 11.808C23.7847 12 24.4807 12.096 25.2647 12.096C25.7607 12.096 26.1367 12.024 26.3927 11.88C26.6647 11.736 26.8007 11.544 26.8007 11.304C26.8007 11.08 26.7047 10.904 26.5127 10.776C26.3207 10.648 26.0007 10.544 25.5527 10.464L24.8327 10.32C23.4407 10.048 22.4007 9.624 21.7127 9.048C21.0407 8.456 20.7047 7.616 20.7047 6.528C20.7047 5.936 20.8327 5.4 21.0887 4.92C21.3447 4.44 21.7047 4.04 22.1687 3.72C22.6327 3.4 23.1847 3.152 23.8247 2.976C24.4807 2.8 25.2007 2.712 25.9847 2.712C26.5767 2.712 27.1287 2.76 27.6407 2.856C28.1687 2.936 28.6247 3.064 29.0087 3.24C29.3927 3.416 29.6967 3.648 29.9207 3.936C30.1447 4.208 30.2567 4.536 30.2567 4.92C30.2567 5.288 30.1847 5.608 30.0407 5.88C29.9127 6.136 29.7447 6.352 29.5367 6.528C29.4087 6.448 29.2167 6.368 28.9607 6.288C28.7047 6.192 28.4247 6.112 28.1207 6.048C27.8167 5.968 27.5047 5.904 27.1847 5.856C26.8807 5.808 26.6007 5.784 26.3447 5.784C25.8167 5.784 25.4087 5.848 25.1207 5.976C24.8327 6.088 24.6887 6.272 24.6887 6.528C24.6887 6.704 24.7687 6.848 24.9287 6.96C25.0887 7.072 25.3927 7.176 25.8407 7.272L26.5847 7.44C28.1207 7.792 29.2087 8.28 29.8487 8.904C30.5047 9.512 30.8327 10.304 30.8327 11.28Z" fill="url(#paint2_linear_16_513)"/>
<path d="M32.8052 3.264C32.9652 3.216 33.2132 3.168 33.5492 3.12C33.9012 3.072 34.2612 3.048 34.6292 3.048C34.9812 3.048 35.2932 3.072 35.5652 3.12C35.8532 3.168 36.0932 3.264 36.2852 3.408C36.4772 3.552 36.6212 3.752 36.7172 4.008C36.8292 4.248 36.8852 4.568 36.8852 4.968V10.128C36.8852 10.784 37.0452 11.256 37.3652 11.544C37.6852 11.816 38.1492 11.952 38.7572 11.952C39.1252 11.952 39.4212 11.92 39.6452 11.856C39.8852 11.792 40.0692 11.728 40.1972 11.664V3.264C40.3572 3.216 40.6052 3.168 40.9412 3.12C41.2932 3.072 41.6532 3.048 42.0212 3.048C42.3732 3.048 42.6852 3.072 42.9572 3.12C43.2452 3.168 43.4852 3.264 43.6772 3.408C43.8692 3.552 44.0132 3.752 44.1092 4.008C44.2212 4.248 44.2772 4.568 44.2772 4.968V12.264C44.2772 13.064 43.9412 13.664 43.2692 14.064C42.7092 14.416 42.0372 14.68 41.2532 14.856C40.4852 15.048 39.6452 15.144 38.7332 15.144C37.8692 15.144 37.0692 15.048 36.3332 14.856C35.6132 14.664 34.9892 14.368 34.4612 13.968C33.9332 13.568 33.5252 13.056 33.2372 12.432C32.9492 11.792 32.8052 11.024 32.8052 10.128V3.264Z" fill="url(#paint3_linear_16_513)"/>
<path d="M50.8539 14.736C50.6939 14.784 50.4379 14.832 50.0859 14.88C49.7499 14.928 49.3979 14.952 49.0299 14.952C48.6779 14.952 48.3579 14.928 48.0699 14.88C47.7979 14.832 47.5659 14.736 47.3739 14.592C47.1819 14.448 47.0299 14.256 46.9179 14.016C46.8219 13.76 46.7739 13.432 46.7739 13.032V5.832C46.7739 5.464 46.8379 5.152 46.9659 4.896C47.1099 4.624 47.3099 4.384 47.5659 4.176C47.8219 3.968 48.1339 3.784 48.5019 3.624C48.8859 3.448 49.2939 3.296 49.7259 3.168C50.1579 3.04 50.6059 2.944 51.0699 2.88C51.5339 2.8 51.9979 2.76 52.4619 2.76C53.2299 2.76 53.8379 2.912 54.2859 3.216C54.7339 3.504 54.9579 3.984 54.9579 4.656C54.9579 4.88 54.9259 5.104 54.8619 5.328C54.7979 5.536 54.7179 5.728 54.6219 5.904C54.2859 5.904 53.9419 5.92 53.5899 5.952C53.2379 5.984 52.8939 6.032 52.5579 6.096C52.2219 6.16 51.9019 6.232 51.5979 6.312C51.3099 6.376 51.0619 6.456 50.8539 6.552V14.736Z" fill="url(#paint4_linear_16_513)"/>
<path d="M61.2816 12.168C61.5536 12.168 61.8496 12.144 62.1696 12.096C62.5056 12.032 62.7536 11.952 62.9136 11.856V9.936L61.1856 10.08C60.7376 10.112 60.3696 10.208 60.0816 10.368C59.7936 10.528 59.6496 10.768 59.6496 11.088C59.6496 11.408 59.7696 11.672 60.0096 11.88C60.2656 12.072 60.6896 12.168 61.2816 12.168ZM61.0896 2.736C61.9536 2.736 62.7376 2.824 63.4416 3C64.1616 3.176 64.7696 3.448 65.2656 3.816C65.7776 4.168 66.1696 4.624 66.4416 5.184C66.7136 5.728 66.8496 6.376 66.8496 7.128V12.504C66.8496 12.92 66.7296 13.264 66.4896 13.536C66.2656 13.792 65.9936 14.016 65.6736 14.208C64.6336 14.832 63.1696 15.144 61.2816 15.144C60.4336 15.144 59.6656 15.064 58.9776 14.904C58.3056 14.744 57.7216 14.504 57.2256 14.184C56.7456 13.864 56.3696 13.456 56.0976 12.96C55.8416 12.464 55.7136 11.888 55.7136 11.232C55.7136 10.128 56.0416 9.28 56.6976 8.688C57.3536 8.096 58.3696 7.728 59.7456 7.584L62.8896 7.248V7.08C62.8896 6.616 62.6816 6.288 62.2656 6.096C61.8656 5.888 61.2816 5.784 60.5136 5.784C59.9056 5.784 59.3136 5.848 58.7376 5.976C58.1616 6.104 57.6416 6.264 57.1776 6.456C56.9696 6.312 56.7936 6.096 56.6496 5.808C56.5056 5.504 56.4336 5.192 56.4336 4.872C56.4336 4.456 56.5296 4.128 56.7216 3.888C56.9296 3.632 57.2416 3.416 57.6576 3.24C58.1216 3.064 58.6656 2.936 59.2896 2.856C59.9296 2.776 60.5296 2.736 61.0896 2.736Z" fill="url(#paint5_linear_16_513)"/>
<path d="M76.7363 7.368C76.7363 6.872 76.5923 6.512 76.3043 6.288C76.0322 6.048 75.6563 5.928 75.1763 5.928C74.8563 5.928 74.5363 5.968 74.2163 6.048C73.9123 6.128 73.6483 6.248 73.4243 6.408V14.736C73.2643 14.784 73.0082 14.832 72.6562 14.88C72.3203 14.928 71.9682 14.952 71.6003 14.952C71.2483 14.952 70.9283 14.928 70.6403 14.88C70.3682 14.832 70.1363 14.736 69.9443 14.592C69.7523 14.448 69.6003 14.256 69.4883 14.016C69.3923 13.76 69.3443 13.432 69.3443 13.032V5.832C69.3443 5.4 69.4323 5.048 69.6083 4.776C69.8003 4.504 70.0563 4.256 70.3763 4.032C70.9202 3.648 71.6003 3.336 72.4163 3.096C73.2483 2.856 74.1683 2.736 75.1763 2.736C76.9843 2.736 78.3763 3.136 79.3522 3.936C80.3282 4.72 80.8163 5.816 80.8163 7.224V14.736C80.6562 14.784 80.4003 14.832 80.0483 14.88C79.7123 14.928 79.3603 14.952 78.9923 14.952C78.6403 14.952 78.3203 14.928 78.0323 14.88C77.7603 14.832 77.5283 14.736 77.3363 14.592C77.1442 14.448 76.9923 14.256 76.8803 14.016C76.7843 13.76 76.7363 13.432 76.7363 13.032V7.368Z" fill="url(#paint6_linear_16_513)"/>
<path d="M89.9124 5.952C89.5124 5.952 89.1284 6.016 88.7604 6.144C88.4084 6.272 88.0964 6.464 87.8244 6.72C87.5684 6.96 87.3604 7.264 87.2004 7.632C87.0404 8 86.9604 8.432 86.9604 8.928C86.9604 9.92 87.2404 10.664 87.8004 11.16C88.3764 11.656 89.0724 11.904 89.8884 11.904C90.3684 11.904 90.7844 11.848 91.1364 11.736C91.4884 11.624 91.8004 11.504 92.0724 11.376C92.3924 11.6 92.6324 11.848 92.7924 12.12C92.9524 12.376 93.0324 12.688 93.0324 13.056C93.0324 13.712 92.7204 14.224 92.0964 14.592C91.4724 14.944 90.6084 15.12 89.5044 15.12C88.4964 15.12 87.5844 14.976 86.7684 14.688C85.9524 14.384 85.2484 13.968 84.6564 13.44C84.0804 12.896 83.6324 12.248 83.3124 11.496C82.9924 10.744 82.8324 9.912 82.8324 9C82.8324 7.944 83.0004 7.024 83.3364 6.24C83.6884 5.44 84.1604 4.784 84.7524 4.272C85.3444 3.76 86.0244 3.376 86.7924 3.12C87.5764 2.864 88.4004 2.736 89.2644 2.736C90.4164 2.736 91.3044 2.944 91.9284 3.36C92.5524 3.776 92.8644 4.312 92.8644 4.968C92.8644 5.272 92.7924 5.56 92.6484 5.832C92.5044 6.088 92.3364 6.312 92.1444 6.504C91.8724 6.376 91.5444 6.256 91.1604 6.144C90.7764 6.016 90.3604 5.952 89.9124 5.952Z" fill="url(#paint7_linear_16_513)"/>
<path d="M100.895 15.144C99.9511 15.144 99.0711 15.016 98.2551 14.76C97.4551 14.488 96.7511 14.088 96.1431 13.56C95.5511 13.032 95.0791 12.368 94.7271 11.568C94.3911 10.768 94.2231 9.832 94.2231 8.76C94.2231 7.704 94.3911 6.8 94.7271 6.048C95.0791 5.28 95.5351 4.656 96.0951 4.176C96.6551 3.68 97.2951 3.32 98.0151 3.096C98.7351 2.856 99.4711 2.736 100.223 2.736C101.071 2.736 101.839 2.864 102.527 3.12C103.231 3.376 103.831 3.728 104.327 4.176C104.839 4.624 105.231 5.16 105.503 5.784C105.791 6.408 105.935 7.088 105.935 7.824C105.935 8.368 105.783 8.784 105.479 9.072C105.175 9.36 104.751 9.544 104.207 9.624L98.2791 10.512C98.4551 11.04 98.8151 11.44 99.3591 11.712C99.9031 11.968 100.527 12.096 101.231 12.096C101.887 12.096 102.503 12.016 103.079 11.856C103.671 11.68 104.151 11.48 104.519 11.256C104.775 11.416 104.991 11.64 105.167 11.928C105.343 12.216 105.431 12.52 105.431 12.84C105.431 13.56 105.095 14.096 104.423 14.448C103.911 14.72 103.335 14.904 102.695 15C102.055 15.096 101.455 15.144 100.895 15.144ZM100.223 5.712C99.8391 5.712 99.5031 5.776 99.2151 5.904C98.9431 6.032 98.7191 6.2 98.5431 6.408C98.3671 6.6 98.2311 6.824 98.1351 7.08C98.0551 7.32 98.0071 7.568 97.9911 7.824L102.095 7.152C102.047 6.832 101.871 6.512 101.567 6.192C101.263 5.872 100.815 5.712 100.223 5.712Z" fill="url(#paint8_linear_16_513)"/>
<defs>
<linearGradient id="paint0_linear_16_513" x1="0" y1="15.168" x2="105.935" y2="15.168" gradientUnits="userSpaceOnUse">
<stop stop-color="#00A0D7"/>
<stop offset="1" stop-color="#96C92E"/>
</linearGradient>
<linearGradient id="paint1_linear_16_513" x1="0" y1="15.168" x2="105.935" y2="15.168" gradientUnits="userSpaceOnUse">
<stop stop-color="#00A0D7"/>
<stop offset="1" stop-color="#96C92E"/>
</linearGradient>
<linearGradient id="paint2_linear_16_513" x1="0" y1="15.168" x2="105.935" y2="15.168" gradientUnits="userSpaceOnUse">
<stop stop-color="#00A0D7"/>
<stop offset="1" stop-color="#96C92E"/>
</linearGradient>
<linearGradient id="paint3_linear_16_513" x1="0" y1="15.168" x2="105.935" y2="15.168" gradientUnits="userSpaceOnUse">
<stop stop-color="#00A0D7"/>
<stop offset="1" stop-color="#96C92E"/>
</linearGradient>
<linearGradient id="paint4_linear_16_513" x1="0" y1="15.168" x2="105.935" y2="15.168" gradientUnits="userSpaceOnUse">
<stop stop-color="#00A0D7"/>
<stop offset="1" stop-color="#96C92E"/>
</linearGradient>
<linearGradient id="paint5_linear_16_513" x1="0" y1="15.168" x2="105.935" y2="15.168" gradientUnits="userSpaceOnUse">
<stop stop-color="#00A0D7"/>
<stop offset="1" stop-color="#96C92E"/>
</linearGradient>
<linearGradient id="paint6_linear_16_513" x1="0" y1="15.168" x2="105.935" y2="15.168" gradientUnits="userSpaceOnUse">
<stop stop-color="#00A0D7"/>
<stop offset="1" stop-color="#96C92E"/>
</linearGradient>
<linearGradient id="paint7_linear_16_513" x1="0" y1="15.168" x2="105.935" y2="15.168" gradientUnits="userSpaceOnUse">
<stop stop-color="#00A0D7"/>
<stop offset="1" stop-color="#96C92E"/>
</linearGradient>
<linearGradient id="paint8_linear_16_513" x1="0" y1="15.168" x2="105.935" y2="15.168" gradientUnits="userSpaceOnUse">
<stop stop-color="#00A0D7"/>
<stop offset="1" stop-color="#96C92E"/>
</linearGradient>
</defs>
</svg>
