<svg width="41" height="34" viewBox="0 0 41 34" fill="none" xmlns="http://www.w3.org/2000/svg">
<circle cx="17" cy="17" r="17" fill="black" fill-opacity="0.07"/>
<path d="M40.7198 18.0276C40.7198 17.7831 40.7094 17.5355 40.6689 17.2951C40.3869 15.6137 39.6258 14.2089 38.2613 13.1512C37.5822 12.6238 36.9175 12.0779 36.201 11.5029C36.9476 11.3516 37.6257 11.217 38.3028 11.0771C38.6688 11.0015 38.8596 10.7767 38.8596 10.3975C38.8596 9.81631 38.8658 9.23512 38.8575 8.65289C38.8503 8.22088 38.6138 7.9826 38.1815 7.9795C37.1861 7.97224 36.1896 7.97224 35.1942 7.9795C34.7608 7.9826 34.5285 8.22088 34.5171 8.65289C34.5088 8.95644 34.5151 9.25998 34.5151 9.62672C34.231 9.318 34.0433 9.03103 33.867 8.73681C33.2874 7.7723 32.9214 6.70626 32.4123 5.70964C31.5392 4.00129 30.1301 3.04093 28.2067 3.02746C23.3064 2.99224 18.4051 2.98913 13.5048 3.0285C11.5845 3.04404 10.1733 4.00543 9.30644 5.72C8.96427 6.39754 8.67913 7.10305 8.35874 7.79302C8.06322 8.43015 7.72002 9.03932 7.20676 9.62983C7.20676 9.26516 7.21195 8.97301 7.20573 8.68086C7.19639 8.22192 6.96932 7.9826 6.51724 7.9795C5.53428 7.97224 4.55131 7.97328 3.56939 7.9795C3.09346 7.9826 2.86846 8.21674 2.86327 8.70262C2.85809 9.25791 2.85809 9.81424 2.86327 10.3695C2.86742 10.8015 3.03332 10.9932 3.46777 11.0833C4.13034 11.2201 4.79394 11.3527 5.46169 11.4884C5.41503 11.6365 5.30098 11.6852 5.21388 11.7557C4.55961 12.282 3.89289 12.7927 3.24796 13.3304C2.01511 14.3581 1.31729 15.6883 1.06636 17.263C1.09539 17.406 1.11406 17.5479 1 17.6681C1 21.3894 1 25.1096 1 28.8309C1.11095 28.9034 1.09021 29.0371 1.13687 29.1396C1.46763 29.8669 2.02755 30.2854 2.82387 30.2958C4.50465 30.3175 6.18544 30.3113 7.86622 30.2989C8.72061 30.2927 9.41635 29.7125 9.63099 28.8806C9.73986 28.459 9.7015 28.0301 9.67972 27.6084C9.66106 27.2603 9.76682 27.194 10.1007 27.1951C17.0571 27.2054 24.0135 27.2023 30.971 27.2054C31.3163 27.2054 31.7881 27.0552 31.9706 27.2665C32.1458 27.4686 32.0317 27.9265 32.0338 28.2725C32.04 29.5343 32.8011 30.302 34.0578 30.303C35.5965 30.3051 37.1353 30.3041 38.674 30.303C39.9639 30.302 40.7239 29.5468 40.7239 28.2611C40.7218 24.8496 40.7229 21.4391 40.7198 18.0276ZM37.1187 14.0483C37.2815 13.9831 37.3841 14.0411 37.5023 14.1312C37.9388 14.4627 38.308 14.8543 38.6045 15.3153C38.8866 15.7536 38.7538 16.2457 38.2831 16.5036C38.0622 16.6248 37.8227 16.6621 37.5728 16.6611C36.8491 16.659 36.1253 16.6601 35.4016 16.6601C34.6519 16.6601 33.9023 16.6611 33.1536 16.6601C32.9597 16.6601 32.3957 16.2498 32.3449 16.083C32.3034 15.9452 32.4226 15.9318 32.4931 15.9028C34.036 15.2832 35.5789 14.6699 37.1187 14.0483ZM36.7112 9.21751C36.8522 9.21751 36.9942 9.21751 37.1353 9.21751C37.6381 9.21751 37.7107 9.31282 37.6205 9.81631C37.6008 9.92405 37.5593 9.96756 37.4557 9.98725C36.9517 10.0846 36.4478 10.1851 35.946 10.2918C35.7832 10.3271 35.7365 10.2628 35.7552 10.1147C35.7572 10.1022 35.7562 10.0888 35.7552 10.0763C35.7189 9.21751 35.7189 9.21751 36.7112 9.21751ZM10.5974 5.94792C11.207 4.87359 12.2149 4.27065 13.4695 4.26547C18.3926 4.24475 23.3168 4.24371 28.2399 4.2665C29.5401 4.27272 30.55 4.91089 31.1784 6.03805C31.7404 7.04503 32.1178 8.14629 32.686 9.20093C24.7798 9.20093 16.9285 9.20093 9.05967 9.20093C9.57189 8.09864 10.0105 6.9808 10.5974 5.94792ZM8.05597 10.5964C8.16069 10.4576 8.28408 10.4566 8.42717 10.4576C8.89273 10.4597 9.35829 10.4586 9.82281 10.4586C17.6036 10.4586 25.3853 10.4597 33.1661 10.4524C33.4346 10.4524 33.6088 10.5177 33.7778 10.7394C34.3741 11.5236 35.0615 12.2229 35.8516 12.8176C35.9522 12.8932 36.0455 12.9782 36.1782 13.09C35.2004 13.4837 34.2745 13.9054 33.3154 14.2286C32.1883 14.6088 31.197 15.161 30.464 16.111C30.1166 16.5606 29.6915 16.6808 29.1305 16.6715C27.063 16.6373 24.9944 16.6632 22.9269 16.6528C22.6055 16.6518 22.3576 16.7398 22.1368 16.975C21.8019 17.3335 21.4359 17.6629 21.103 18.0234C20.9268 18.2151 20.8127 18.2462 20.6229 18.0338C20.3129 17.6878 19.9552 17.3842 19.6452 17.0392C19.3808 16.745 19.079 16.6466 18.6871 16.6497C16.5024 16.6652 14.3187 16.6528 12.134 16.6632C11.8924 16.6642 11.7151 16.6072 11.5668 16.4197C10.6243 15.2273 9.38317 14.5042 7.94917 14.0432C7.14351 13.7842 6.37207 13.4216 5.51872 13.0797C6.53486 12.3503 7.35296 11.5298 8.05597 10.5964ZM4.28898 9.98517C3.90741 9.89608 4.15626 9.58114 4.10857 9.37601C4.05776 9.15638 4.2558 9.22372 4.36571 9.22061C4.59694 9.21233 4.82816 9.21854 5.06042 9.21854C5.08634 9.21854 5.11226 9.21854 5.13715 9.21854C6.05479 9.21854 6.04857 9.21854 5.96769 10.1302C5.95317 10.296 5.90237 10.3167 5.75928 10.2856C5.26987 10.182 4.77632 10.0991 4.28898 9.98517ZM3.11316 15.3164C3.40971 14.8564 3.77676 14.4627 4.2164 14.1333C4.35327 14.0307 4.4611 13.9945 4.63323 14.0639C6.14811 14.6782 7.66714 15.2832 9.18824 15.8831C9.42361 15.9763 9.41013 16.0509 9.25149 16.227C8.97983 16.5285 8.69676 16.7015 8.25712 16.6715C7.60078 16.6259 6.93925 16.6601 6.28083 16.659C5.55709 16.659 4.83334 16.658 4.1096 16.659C3.83276 16.659 3.57146 16.6052 3.34127 16.4404C2.92341 16.141 2.84046 15.7391 3.11316 15.3164ZM8.45102 27.5173C8.43028 27.8125 8.45413 28.1109 8.44376 28.4082C8.42924 28.8164 8.19491 29.0578 7.78534 29.0598C6.15744 29.0671 4.5285 29.0661 2.9006 29.0598C2.50555 29.0578 2.27018 28.8247 2.24322 28.4465C2.23492 28.3305 2.24114 28.2145 2.24114 28.0984C2.24114 27.6105 2.24114 27.1225 2.24114 26.5693C2.93689 27.0666 3.64819 27.221 4.41963 27.2096C5.65974 27.1899 6.90088 27.2127 8.14203 27.1971C8.40021 27.193 8.46864 27.2707 8.45102 27.5173ZM10.306 25.9425C10.9852 25.1013 11.8126 24.7097 12.8764 24.7139C18.1241 24.7315 23.3717 24.7284 28.6194 24.7159C29.6542 24.7139 30.4453 25.1345 31.1079 25.9425C24.1649 25.9425 17.2583 25.9425 10.306 25.9425ZM39.4745 28.4455C39.4651 28.8112 39.2246 29.0557 38.8586 29.0578C37.2047 29.0671 35.5509 29.0671 33.8971 29.0578C33.5165 29.0557 33.2895 28.8019 33.276 28.4092C33.2656 28.1254 33.2926 27.8394 33.2677 27.5577C33.2428 27.279 33.3133 27.1878 33.6161 27.193C34.8427 27.2137 36.0714 27.1868 37.298 27.2065C38.0695 27.2189 38.7808 27.0645 39.4776 26.5693C39.4786 27.2396 39.489 27.8426 39.4745 28.4455ZM33.7861 21.6494C34.0319 21.9405 34.3979 21.955 34.7421 21.6546C35.5468 20.9522 36.5162 20.9739 37.4909 20.9998C37.5946 21.0029 37.6102 21.0558 37.6205 21.1449C37.7615 22.3684 37.0295 22.9112 36.2031 22.8667C35.6743 22.8377 35.1434 22.8574 34.6136 22.8625C34.1646 22.8667 33.8867 23.1174 33.8971 23.4966C33.9064 23.8602 34.176 24.0964 34.6053 24.1006C35.1994 24.1057 35.7946 24.1088 36.3897 24.0995C37.7657 24.0778 38.8326 23.0086 38.8596 21.6339C38.8617 21.5303 38.87 21.4256 38.8586 21.3241C38.8326 21.0941 38.8814 20.9895 39.1582 20.9884C39.4423 20.9884 39.4921 21.0765 39.4879 21.3376C39.4713 22.2285 39.4848 23.1195 39.4807 24.0115C39.4745 25.1687 38.6895 25.957 37.5334 25.9612C36.0859 25.9664 34.6374 25.9581 33.1899 25.9674C32.9929 25.9684 32.8529 25.9166 32.7171 25.7737C32.3511 25.3904 31.9737 25.0184 31.5952 24.6476C30.8124 23.882 29.8709 23.4841 28.7739 23.4831C23.3956 23.48 18.0183 23.481 12.64 23.4831C11.542 23.4831 10.6015 23.8799 9.81763 24.6455C9.42983 25.0247 9.04619 25.409 8.66773 25.7975C8.5516 25.9166 8.43235 25.9664 8.26231 25.9664C6.87911 25.9591 5.49591 25.9705 4.11271 25.9591C3.05302 25.9508 2.25359 25.149 2.24218 24.0923C2.23181 23.1619 2.25151 22.2316 2.23285 21.3023C2.22767 21.033 2.3241 21.0009 2.55843 20.9905C2.83009 20.9791 2.87779 21.0827 2.86327 21.32C2.80832 22.242 3.10176 23.0211 3.85038 23.5971C4.27239 23.9213 4.75454 24.0912 5.28646 24.0985C5.89407 24.1068 6.50168 24.1057 7.10929 24.1006C7.55619 24.0964 7.83511 23.8405 7.82267 23.4624C7.81023 23.0998 7.54064 22.8677 7.10929 22.8636C6.52761 22.8584 5.94488 22.8812 5.36423 22.8574C4.32216 22.8159 4.00488 22.0006 4.10131 21.1117C4.11686 20.9677 4.22055 21.0071 4.30246 21.0029C5.31342 20.9532 6.29016 21.006 7.09789 21.7478C7.34467 21.9747 7.72106 21.9001 7.93154 21.6546C8.14721 21.4028 8.1327 21.0299 7.86 20.7864C7.14248 20.1451 6.29638 19.7888 5.33105 19.767C4.41341 19.7463 3.49473 19.7525 2.57813 19.768C2.31995 19.7722 2.21522 19.7266 2.23285 19.4407C2.2764 18.7217 2.17893 17.9965 2.32098 17.2081C2.9203 17.7779 3.59738 17.9115 4.33149 17.9053C5.77898 17.8929 7.2275 17.8846 8.67498 17.9115C9.14158 17.9198 9.50449 17.8059 9.79378 17.4402C9.89747 17.3096 10.0385 17.2081 10.1453 17.0796C10.2718 16.9274 10.3817 16.9439 10.4802 17.0921C10.9883 17.8587 11.7317 17.9364 12.5778 17.9167C14.5157 17.8711 16.4557 17.9074 18.3947 17.897C18.6487 17.896 18.826 17.9685 18.9992 18.1509C19.4347 18.6098 19.8878 19.0532 20.3388 19.4966C20.7069 19.8582 21.0118 19.8613 21.3788 19.5028C21.8506 19.0428 22.3193 18.5787 22.7755 18.1042C22.9227 17.9509 23.0741 17.8981 23.2825 17.8991C25.4413 17.9053 27.6001 17.8898 29.7589 17.9126C30.239 17.9178 30.6154 17.8079 30.9109 17.4277C31.0052 17.3065 31.139 17.2154 31.2354 17.0952C31.3702 16.9253 31.4853 16.9398 31.5983 17.1055C32.0919 17.8328 32.7959 17.954 33.6233 17.9178C34.8873 17.8618 36.1564 17.8939 37.4235 17.9064C38.1452 17.9136 38.8057 17.7686 39.3625 17.2485C39.4796 17.4619 39.4796 17.6764 39.4807 17.8877C39.4848 18.4171 39.4672 18.9475 39.49 19.4759C39.5004 19.7256 39.4185 19.7722 39.1872 19.768C38.2696 19.7546 37.352 19.7535 36.4333 19.7649C35.4949 19.7774 34.6706 20.1141 33.951 20.7077C33.6005 20.9926 33.5456 21.3645 33.7861 21.6494Z" fill="url(#paint0_linear_16_526)"/>
<defs>
<linearGradient id="paint0_linear_16_526" x1="1" y1="30.3102" x2="40.7239" y2="30.3102" gradientUnits="userSpaceOnUse">
<stop stop-color="#00A0D7"/>
<stop offset="1" stop-color="#96C92E"/>
</linearGradient>
</defs>
</svg>
