<svg width="17" height="17" viewBox="0 0 17 17" fill="none" xmlns="http://www.w3.org/2000/svg">
<path fill-rule="evenodd" clip-rule="evenodd" d="M0.830078 8.0849C0.830078 9.5041 1.20365 10.8983 1.91325 12.1274L4.65353 10.5453C4.22165 9.79721 3.99428 8.94867 3.99428 8.0849C3.99428 7.22114 4.22165 6.37259 4.65353 5.62455C5.08541 4.87651 5.70659 4.25533 6.45463 3.82345C7.20267 3.39157 8.05122 3.1642 8.91498 3.1642V0C7.49578 -2.93912e-08 6.10159 0.373573 4.87253 1.08317C3.64347 1.79277 2.62285 2.81339 1.91325 4.04245C1.20365 5.27151 0.830078 6.66571 0.830078 8.0849ZM15.9168 12.1274C16.6264 10.8983 17 9.50412 17 8.08492L14.3196 8.08492C14.3196 9.0336 14.0699 9.96557 13.5955 10.7872C13.1212 11.6087 12.4389 12.291 11.6173 12.7653C10.7958 13.2397 9.86379 13.4894 8.91511 13.4894C7.96643 13.4894 7.03446 13.2397 6.21287 12.7653L4.87266 15.0866C6.10172 15.7962 7.49591 16.1698 8.91511 16.1698C10.3343 16.1698 11.7285 15.7962 12.9576 15.0867C14.1866 14.3771 15.2072 13.3564 15.9168 12.1274Z" fill="url(#paint0_linear_302_2)"/>
<defs>
<linearGradient id="paint0_linear_302_2" x1="8.91502" y1="0" x2="8.91502" y2="16.1699" gradientUnits="userSpaceOnUse">
<stop stop-color="#80ED99"/>
<stop offset="0.0001" stop-color="#96C92E"/>
<stop offset="1" stop-color="#00A0D7"/>
</linearGradient>
</defs>
</svg>
